<svg xmlns="http://www.w3.org/2000/svg" width="18" height="18" viewBox="0 0 18 18"><g><g><path fill="#3fc0f0" d="M17.963 13.948c-.05-.154-.375-.38-.971-.678a30.086 30.086 0 0 0-.69-.383c-.3-.162-.57-.312-.813-.448a27.664 27.664 0 0 1-.684-.396c-.034-.026-.14-.1-.32-.224a3.586 3.586 0 0 0-.454-.275.834.834 0 0 0-.364-.09c-.17 0-.383.122-.64.365-.255.243-.49.507-.702.793-.213.285-.439.55-.678.792-.238.244-.435.365-.588.365a.868.868 0 0 1-.288-.064 2.929 2.929 0 0 1-.262-.108c-.06-.03-.162-.09-.307-.18a8.47 8.47 0 0 0-.243-.147c-1.168-.648-2.17-1.39-3.005-2.225C6.12 10.21 5.377 9.208 4.73 8.04a7.361 7.361 0 0 0-.147-.243 4.584 4.584 0 0 1-.179-.307 2.775 2.775 0 0 1-.108-.262.866.866 0 0 1-.064-.287c0-.154.121-.35.364-.589.243-.238.508-.464.793-.677.286-.213.55-.448.793-.703.243-.256.364-.47.364-.64 0-.119-.03-.24-.09-.364a3.546 3.546 0 0 0-.274-.454 16.712 16.712 0 0 0-.224-.32c-.128-.213-.26-.44-.396-.684a64.623 64.623 0 0 1-.448-.812c-.162-.298-.29-.528-.384-.69-.298-.597-.524-.92-.677-.972a.716.716 0 0 0-.269-.038c-.23 0-.53.042-.901.128C2.51.21 2.219.3 2.006.394c-.426.18-.878.699-1.356 1.56-.434.801-.652 1.594-.652 2.378 0 .23.015.454.045.672.03.217.083.462.16.735.077.273.138.475.185.607.047.132.134.369.262.71.128.34.205.55.23.626.299.836.653 1.582 1.062 2.238.673 1.091 1.592 2.219 2.755 3.382 1.164 1.164 2.291 2.083 3.382 2.756.657.41 1.403.763 2.238 1.061.077.026.286.103.627.23.34.128.577.216.71.263.131.047.334.109.607.185.273.077.518.13.735.16.217.03.441.045.671.045.784 0 1.577-.217 2.379-.652.86-.477 1.38-.93 1.56-1.356a5.04 5.04 0 0 0 .268-.875 4.21 4.21 0 0 0 .128-.902c0-.12-.013-.209-.039-.27z"/></g></g></svg>