<?xml version="1.0" encoding="UTF-8"?>
<svg id="SVGDoc" width="304" height="81" xmlns="http://www.w3.org/2000/svg" version="1.1" xmlns:xlink="http://www.w3.org/1999/xlink" xmlns:avocode="https://avocode.com/" viewBox="0 0 304 81">
	<g><g><path d="M303.0676,62.7722c0.288,0 0.516,0.076 0.683,0.228c0.17,0.152 0.253,0.38 0.253,0.683v11.42c0,0.129 -0.03,0.205 -0.083,0.228c-0.058,0.024 -0.15,0.036 -0.277,0.036h-1.055c-0.128,0 -0.216,-0.016 -0.264,-0.048c-0.049,-0.032 -0.073,-0.111 -0.073,-0.239v-5.038h-3.383c-0.32,0 -0.619,0.02 -0.899,0.06c-0.281,0.039 -0.537,0.12 -0.768,0.239c-0.231,0.12 -0.436,0.297 -0.611,0.527c-0.177,0.234 -0.327,0.549 -0.456,0.949c-0.177,0.544 -0.344,1.088 -0.505,1.632c-0.159,0.543 -0.318,1.095 -0.478,1.654c-0.033,0.112 -0.091,0.184 -0.168,0.216c-0.081,0.032 -0.153,0.048 -0.217,0.048h-1.176c-0.176,0 -0.263,-0.071 -0.263,-0.216c0,-0.033 0.003,-0.051 0.012,-0.06c0.009,-0.008 0.011,-0.029 0.011,-0.059l1.103,-3.533c0.129,-0.449 0.313,-0.844 0.553,-1.189c0.24,-0.344 0.64,-0.589 1.199,-0.734c-0.016,0 -0.023,-0.014 -0.023,-0.047c-0.785,-0.208 -1.346,-0.607 -1.679,-1.2c-0.337,-0.588 -0.506,-1.236 -0.506,-1.939c0,-0.495 0.09,-0.961 0.265,-1.401c0.176,-0.44 0.436,-0.824 0.779,-1.151c0.346,-0.328 0.765,-0.587 1.26,-0.779c0.496,-0.191 1.065,-0.287 1.702,-0.287zM298.1406,64.2842c-0.415,0 -0.772,0.059 -1.074,0.179c-0.304,0.12 -0.551,0.279 -0.744,0.477c-0.19,0.198 -0.334,0.425 -0.43,0.679c-0.095,0.256 -0.142,0.518 -0.142,0.789c0,0.65 0.193,1.18 0.585,1.585c0.389,0.406 1.041,0.609 1.948,0.609h3.968v-4.318z" fill="#1a1b26" fill-opacity="1"></path></g><g><title>&lt;Path&gt;</title><path d="M280.1807,63.0835c0,-0.223 0.112,-0.335 0.335,-0.335h1.081c0.222,0 0.334,0.112 0.334,0.335v9.79v0l0.073,0.023c0.063,-0.096 0.173,-0.26 0.323,-0.492c0.152,-0.231 0.312,-0.48 0.481,-0.743c0.167,-0.265 0.327,-0.516 0.48,-0.757c0.151,-0.239 0.259,-0.398 0.323,-0.478c0.112,-0.177 0.288,-0.445 0.528,-0.805c0.241,-0.359 0.507,-0.767 0.804,-1.223c0.296,-0.457 0.612,-0.935 0.948,-1.44c0.335,-0.504 0.655,-0.982 0.959,-1.439c0.303,-0.457 0.579,-0.871 0.828,-1.248c0.247,-0.375 0.444,-0.659 0.587,-0.852c0.145,-0.239 0.276,-0.406 0.396,-0.503c0.12,-0.097 0.324,-0.144 0.613,-0.144h0.526c0.545,0 0.818,0.28 0.818,0.84v11.444c0,0.128 -0.024,0.212 -0.073,0.252c-0.048,0.04 -0.135,0.059 -0.264,0.059h-1.079c-0.129,0 -0.217,-0.019 -0.265,-0.059c-0.048,-0.04 -0.07,-0.124 -0.07,-0.252v-9.716v0h-0.121c-0.048,0.063 -0.137,0.199 -0.264,0.408c-0.129,0.207 -0.269,0.431 -0.42,0.67c-0.151,0.24 -0.297,0.464 -0.432,0.672c-0.136,0.209 -0.228,0.345 -0.276,0.408l-4.845,7.22c-0.16,0.257 -0.314,0.429 -0.456,0.517c-0.145,0.088 -0.328,0.132 -0.552,0.132h-0.457c-0.576,0 -0.863,-0.279 -0.863,-0.839z" fill="#1a1b26" fill-opacity="1"></path></g><g><title>&lt;Path&gt;</title><path d="M267.9702,75.2964c-0.063,0.047 -0.157,0.071 -0.284,0.071h-0.97c-0.126,0 -0.226,-0.024 -0.297,-0.071c-0.069,-0.049 -0.106,-0.146 -0.106,-0.29v-11.874c0,-0.144 0.037,-0.239 0.106,-0.289c0.071,-0.047 0.171,-0.071 0.297,-0.071h0.97c0.127,0 0.221,0.024 0.284,0.071c0.063,0.05 0.094,0.145 0.094,0.289v4.726v0h6.695v0v-4.726c0,-0.144 0.033,-0.239 0.098,-0.289c0.064,-0.047 0.16,-0.071 0.291,-0.071h0.998c0.145,0 0.242,0.024 0.291,0.071c0.049,0.05 0.073,0.145 0.073,0.289v11.874c0,0.144 -0.024,0.241 -0.073,0.29c-0.049,0.047 -0.146,0.071 -0.291,0.071h-0.998c-0.131,0 -0.227,-0.024 -0.291,-0.071c-0.065,-0.049 -0.098,-0.146 -0.098,-0.29v-5.636v0h-6.695v0v5.636c0,0.144 -0.031,0.241 -0.094,0.29z" fill="#1a1b26" fill-opacity="1"></path></g><g><title>&lt;Path&gt;</title><path d="M262.6433,74.2638c0,0.288 -0.112,0.48 -0.338,0.576c-0.718,0.305 -1.486,0.512 -2.301,0.623c-0.815,0.112 -1.599,0.169 -2.351,0.169c-1.025,0 -1.865,-0.112 -2.52,-0.337c-0.655,-0.225 -1.175,-0.518 -1.559,-0.878c-0.384,-0.361 -0.652,-0.778 -0.805,-1.252c-0.151,-0.472 -0.226,-0.966 -0.226,-1.479c0,-0.594 0.103,-1.151 0.311,-1.673c0.209,-0.521 0.524,-0.974 0.947,-1.359c0.425,-0.385 0.956,-0.687 1.597,-0.902c0.638,-0.217 1.399,-0.325 2.278,-0.325h3.191v-0.64c0,-0.393 -0.041,-0.76 -0.12,-1.099c-0.079,-0.338 -0.231,-0.626 -0.455,-0.862c-0.225,-0.237 -0.535,-0.423 -0.936,-0.556c-0.401,-0.135 -0.92,-0.201 -1.559,-0.201c-0.528,0 -1.108,0.051 -1.74,0.154c-0.632,0.105 -1.171,0.228 -1.62,0.373c-0.112,0.031 -0.198,0.043 -0.263,0.035c-0.064,-0.007 -0.112,-0.068 -0.145,-0.18l-0.239,-0.871c-0.049,-0.177 0.016,-0.299 0.192,-0.365c0.288,-0.114 0.6,-0.215 0.936,-0.304c0.336,-0.09 0.683,-0.167 1.042,-0.231c0.361,-0.065 0.722,-0.111 1.092,-0.134c0.369,-0.025 0.713,-0.039 1.032,-0.039c1.55,0 2.697,0.346 3.443,1.034c0.743,0.687 1.116,1.695 1.116,3.022zM260.8433,68.9858h-3.094c-0.289,0 -0.634,0.024 -1.032,0.073c-0.399,0.049 -0.781,0.164 -1.14,0.349c-0.359,0.184 -0.665,0.459 -0.913,0.82c-0.246,0.361 -0.37,0.855 -0.37,1.482c0,0.482 0.092,0.883 0.277,1.205c0.183,0.321 0.43,0.578 0.742,0.771c0.312,0.193 0.666,0.324 1.067,0.398c0.4,0.072 0.816,0.108 1.249,0.108c0.143,0 0.339,-0.006 0.588,-0.024c0.248,-0.016 0.523,-0.041 0.826,-0.072c0.305,-0.032 0.614,-0.086 0.924,-0.157c0.313,-0.073 0.604,-0.155 0.876,-0.253z" fill="#1a1b26" fill-opacity="1"></path></g><g><title>&lt;Path&gt;</title><path d="M247.6704,68.6021c0.433,0.128 0.793,0.3 1.081,0.516c0.288,0.216 0.519,0.463 0.696,0.744c0.175,0.279 0.3,0.58 0.372,0.899c0.073,0.32 0.109,0.632 0.109,0.937c0,0.543 -0.105,1.039 -0.314,1.486c-0.207,0.448 -0.494,0.837 -0.863,1.164c-0.368,0.328 -0.803,0.581 -1.308,0.755c-0.502,0.178 -1.057,0.265 -1.667,0.265h-5.327c-0.637,0 -0.958,-0.296 -0.958,-0.889v-10.818c0,-0.593 0.321,-0.889 0.958,-0.889h5.136c1.103,0 2.011,0.252 2.721,0.756c0.714,0.504 1.069,1.291 1.069,2.361c0,0.529 -0.14,1.037 -0.42,1.525c-0.279,0.488 -0.699,0.846 -1.259,1.068zM241.2414,67.9061h4.225c0.191,0 0.41,-0.028 0.658,-0.082c0.249,-0.058 0.48,-0.156 0.695,-0.299c0.216,-0.142 0.397,-0.333 0.54,-0.572c0.145,-0.239 0.217,-0.54 0.217,-0.906c0,-0.493 -0.172,-0.909 -0.515,-1.252c-0.346,-0.34 -0.822,-0.511 -1.429,-0.511h-4.391zM247.4434,69.9581c-0.455,-0.408 -1.138,-0.612 -2.05,-0.612h-4.152v4.63h4.152c0.575,0 1.044,-0.08 1.403,-0.241c0.36,-0.158 0.636,-0.359 0.828,-0.598c0.192,-0.241 0.324,-0.501 0.397,-0.781c0.07,-0.279 0.106,-0.539 0.106,-0.779c0,-0.672 -0.228,-1.212 -0.684,-1.619z" fill="#1a1b26" fill-opacity="1"></path></g><g><title>&lt;Path&gt;</title><path d="M234.9117,73.9287c-0.957,1.136 -2.329,1.704 -4.117,1.704c-1.771,0 -3.124,-0.557 -4.057,-1.669c-0.935,-1.111 -1.401,-2.739 -1.401,-4.882c0,-1.056 0.135,-1.995 0.406,-2.819c0.271,-0.824 0.655,-1.511 1.149,-2.064c0.495,-0.55 1.079,-0.97 1.748,-1.259c0.671,-0.287 1.413,-0.432 2.227,-0.432c1.786,0 3.148,0.572 4.082,1.715c0.934,1.144 1.4,2.74 1.4,4.787c0,2.144 -0.48,3.783 -1.437,4.919zM234.4297,67.1827c-0.112,-0.618 -0.303,-1.163 -0.575,-1.636c-0.274,-0.473 -0.653,-0.85 -1.14,-1.13c-0.489,-0.281 -1.1,-0.421 -1.836,-0.421c-0.672,0 -1.247,0.137 -1.728,0.408c-0.48,0.274 -0.871,0.639 -1.174,1.094c-0.306,0.458 -0.529,0.991 -0.673,1.6c-0.145,0.61 -0.214,1.251 -0.214,1.924c0,0.753 0.062,1.444 0.191,2.068c0.127,0.626 0.335,1.171 0.624,1.635c0.287,0.465 0.671,0.827 1.15,1.082c0.48,0.257 1.073,0.385 1.776,0.385c0.72,0 1.322,-0.147 1.811,-0.445c0.488,-0.296 0.875,-0.684 1.164,-1.166c0.288,-0.481 0.492,-1.026 0.611,-1.636c0.121,-0.609 0.18,-1.225 0.18,-1.851c0,-0.656 -0.055,-1.295 -0.167,-1.911z" fill="#1a1b26" fill-opacity="1"></path></g><g><title>&lt;Path&gt;</title><path d="M222.3615,71.6247c-0.223,0.801 -0.568,1.496 -1.031,2.088c-0.463,0.591 -1.044,1.059 -1.74,1.403c-0.695,0.345 -1.507,0.517 -2.435,0.517c-0.466,0 -0.977,-0.034 -1.535,-0.097c-0.561,-0.064 -1.144,-0.184 -1.752,-0.36v4.775c0,0.127 -0.019,0.208 -0.059,0.239c-0.041,0.032 -0.125,0.049 -0.253,0.049h-1.103c-0.112,0 -0.196,-0.017 -0.252,-0.049c-0.056,-0.031 -0.084,-0.112 -0.084,-0.239v-16.195c0,-0.192 0.088,-0.32 0.263,-0.384c0.769,-0.337 1.574,-0.563 2.413,-0.683c0.839,-0.12 1.642,-0.181 2.411,-0.181c0.943,0 1.763,0.16 2.458,0.481c0.696,0.32 1.268,0.767 1.716,1.343c0.446,0.576 0.78,1.264 0.995,2.063c0.217,0.8 0.324,1.679 0.324,2.639c0,0.927 -0.113,1.792 -0.336,2.591zM220.5875,66.6587c-0.193,-0.639 -0.465,-1.155 -0.818,-1.547c-0.352,-0.392 -0.767,-0.673 -1.246,-0.84c-0.479,-0.168 -1.016,-0.252 -1.607,-0.252c-0.432,0 -0.94,0.044 -1.524,0.132c-0.584,0.087 -1.092,0.22 -1.524,0.395v9.07c0.673,0.224 1.252,0.364 1.74,0.42c0.488,0.056 0.915,0.084 1.284,0.084c0.575,0 1.107,-0.093 1.594,-0.277c0.489,-0.183 0.907,-0.479 1.26,-0.886c0.352,-0.408 0.628,-0.936 0.828,-1.585c0.2,-0.648 0.3,-1.427 0.3,-2.339c0,-0.943 -0.097,-1.734 -0.287,-2.375z" fill="#1a1b26" fill-opacity="1"></path></g><g><title>&lt;Path&gt;</title><path d="M198.0591,63.0835c0,-0.223 0.112,-0.335 0.334,-0.335h1.081c0.223,0 0.335,0.112 0.335,0.335v9.79v0l0.073,0.023c0.062,-0.096 0.171,-0.26 0.324,-0.492c0.151,-0.231 0.311,-0.48 0.478,-0.743c0.17,-0.265 0.329,-0.516 0.48,-0.757c0.152,-0.239 0.261,-0.398 0.325,-0.478c0.112,-0.177 0.288,-0.445 0.528,-0.805c0.24,-0.359 0.507,-0.767 0.803,-1.223c0.297,-0.457 0.612,-0.935 0.948,-1.44c0.336,-0.504 0.656,-0.982 0.959,-1.439c0.304,-0.457 0.581,-0.871 0.828,-1.248c0.248,-0.375 0.444,-0.659 0.589,-0.852c0.143,-0.239 0.275,-0.406 0.395,-0.503c0.12,-0.097 0.324,-0.144 0.613,-0.144h0.526c0.544,0 0.817,0.28 0.817,0.84v11.444c0,0.128 -0.024,0.212 -0.072,0.252c-0.049,0.04 -0.136,0.059 -0.265,0.059h-1.079c-0.128,0 -0.216,-0.019 -0.265,-0.059c-0.047,-0.04 -0.07,-0.124 -0.07,-0.252v-9.716v0h-0.122c-0.046,0.063 -0.136,0.199 -0.263,0.408c-0.128,0.207 -0.268,0.431 -0.419,0.67c-0.152,0.24 -0.296,0.464 -0.433,0.672c-0.135,0.209 -0.228,0.345 -0.275,0.408l-4.847,7.22c-0.159,0.257 -0.312,0.429 -0.454,0.517c-0.146,0.088 -0.329,0.132 -0.553,0.132h-0.456c-0.576,0 -0.863,-0.279 -0.863,-0.839z" fill="#1a1b26" fill-opacity="1"></path></g><g><title>&lt;Path&gt;</title><path d="M192.4214,68.7222c0.879,0.176 1.53,0.54 1.954,1.09c0.425,0.553 0.635,1.189 0.635,1.909c0,0.527 -0.103,1.028 -0.31,1.5c-0.209,0.471 -0.528,0.884 -0.96,1.235c-0.433,0.352 -0.971,0.632 -1.619,0.84c-0.648,0.207 -1.404,0.312 -2.266,0.312c-0.37,0 -0.758,-0.017 -1.166,-0.049c-0.407,-0.032 -0.815,-0.086 -1.222,-0.159c-0.408,-0.073 -0.797,-0.166 -1.165,-0.28c-0.366,-0.114 -0.694,-0.253 -0.983,-0.415c-0.112,-0.066 -0.136,-0.187 -0.073,-0.367l0.384,-0.819c0.081,-0.127 0.153,-0.191 0.217,-0.191c0.048,0 0.119,0.024 0.216,0.074c0.416,0.174 0.947,0.345 1.595,0.515c0.648,0.166 1.3,0.25 1.956,0.25c1.311,0 2.259,-0.242 2.842,-0.728c0.585,-0.484 0.875,-1.085 0.875,-1.801c0,-0.653 -0.295,-1.182 -0.886,-1.587c-0.592,-0.406 -1.559,-0.61 -2.904,-0.61c-0.223,0 -0.391,-0.035 -0.503,-0.104c-0.114,-0.072 -0.169,-0.21 -0.169,-0.415v-0.377c0,-0.361 0.216,-0.542 0.648,-0.542c1.2,0 2.048,-0.189 2.544,-0.568c0.495,-0.378 0.744,-0.872 0.744,-1.484c0,-0.644 -0.265,-1.123 -0.792,-1.437c-0.528,-0.314 -1.249,-0.47 -2.158,-0.47c-0.561,0 -1.134,0.071 -1.716,0.215c-0.585,0.145 -1.085,0.304 -1.5,0.481c-0.097,0.032 -0.16,0.047 -0.192,0.047c-0.113,0 -0.193,-0.055 -0.24,-0.168l-0.312,-0.767c-0.048,-0.096 -0.071,-0.176 -0.071,-0.24c0,-0.064 0.055,-0.127 0.166,-0.192c1.184,-0.592 2.536,-0.888 4.056,-0.888c1.375,0 2.47,0.277 3.285,0.828c0.817,0.551 1.225,1.356 1.225,2.411c0,0.608 -0.181,1.172 -0.54,1.693c-0.359,0.518 -0.901,0.914 -1.619,1.185z" fill="#1a1b26" fill-opacity="1"></path></g><g><title>&lt;Path&gt;</title><path d="M174.0918,75.2964c-0.062,0.047 -0.158,0.071 -0.284,0.071h-0.969c-0.127,0 -0.226,-0.024 -0.296,-0.071c-0.072,-0.049 -0.106,-0.146 -0.106,-0.29v-11.874c0,-0.144 0.034,-0.239 0.106,-0.289c0.07,-0.047 0.169,-0.071 0.296,-0.071h0.969c0.126,0 0.222,0.024 0.284,0.071c0.064,0.05 0.096,0.145 0.096,0.289v4.726v0h6.694v0v-4.726c0,-0.144 0.031,-0.239 0.096,-0.289c0.066,-0.047 0.163,-0.071 0.292,-0.071h0.997c0.147,0 0.244,0.024 0.291,0.071c0.051,0.05 0.076,0.145 0.076,0.289v11.874c0,0.144 -0.025,0.241 -0.076,0.29c-0.047,0.047 -0.144,0.071 -0.291,0.071h-0.997c-0.129,0 -0.226,-0.024 -0.292,-0.071c-0.065,-0.049 -0.096,-0.146 -0.096,-0.29v-5.636v0h-6.694v0v5.636c0,0.144 -0.032,0.241 -0.096,0.29z" fill="#1a1b26" fill-opacity="1"></path></g><g><title>&lt;Path&gt;</title><path d="M166.4372,62.9046c0.657,0.264 1.197,0.636 1.62,1.115c0.423,0.48 0.741,1.049 0.948,1.704c0.208,0.655 0.314,1.375 0.314,2.159c0,0.671 -0.158,1.115 -0.47,1.331c-0.313,0.216 -0.69,0.323 -1.14,0.323h-7.341c0,0.828 0.105,1.532 0.313,2.113c0.209,0.582 0.493,1.05 0.855,1.408c0.361,0.359 0.786,0.617 1.276,0.776c0.489,0.16 1.014,0.239 1.576,0.239c0.529,0 1.048,-0.064 1.552,-0.193c0.506,-0.127 0.934,-0.288 1.289,-0.478c0.191,-0.097 0.328,-0.065 0.409,0.095l0.432,0.843c0.095,0.196 0.055,0.333 -0.12,0.415c-0.561,0.342 -1.161,0.573 -1.799,0.694c-0.64,0.122 -1.263,0.184 -1.872,0.184c-1.761,0 -3.143,-0.517 -4.151,-1.549c-1.007,-1.031 -1.511,-2.682 -1.511,-4.953c0,-1.073 0.136,-2.019 0.408,-2.844c0.271,-0.823 0.652,-1.515 1.14,-2.075c0.488,-0.56 1.062,-0.983 1.727,-1.272c0.663,-0.287 1.395,-0.432 2.194,-0.432c0.912,0 1.696,0.133 2.351,0.397zM167.6382,68.0986c0,-0.543 -0.057,-1.064 -0.169,-1.56c-0.112,-0.495 -0.302,-0.931 -0.565,-1.307c-0.265,-0.376 -0.63,-0.676 -1.095,-0.9c-0.466,-0.223 -1.044,-0.336 -1.734,-0.336c-0.562,0 -1.064,0.108 -1.504,0.324c-0.442,0.215 -0.814,0.508 -1.121,0.876c-0.303,0.367 -0.54,0.799 -0.708,1.295c-0.169,0.497 -0.269,1.032 -0.302,1.608z" fill="#1a1b26" fill-opacity="1"></path></g><g><title>&lt;Path&gt;</title><path d="M154.9956,73.8799v0l0.623,0.049c0.336,0.032 0.536,0.131 0.601,0.3c0.063,0.167 0.094,0.323 0.094,0.467l-0.239,4.15c-0.016,0.177 -0.096,0.265 -0.24,0.265h-1.103c-0.128,0 -0.199,-0.088 -0.217,-0.265l-0.119,-3.478v0h-8.664c-0.336,0 -0.59,-0.105 -0.765,-0.312c-0.177,-0.208 -0.264,-0.488 -0.264,-0.84v-11.083c0,-0.144 0.031,-0.24 0.097,-0.289c0.063,-0.047 0.159,-0.071 0.286,-0.071h0.985c0.159,0 0.264,0.024 0.311,0.071c0.049,0.049 0.073,0.145 0.073,0.289v10.796v0h6.79v0v-10.796c0,-0.144 0.03,-0.24 0.094,-0.289c0.063,-0.047 0.165,-0.071 0.307,-0.071h0.971c0.126,0 0.22,0.024 0.283,0.071c0.064,0.049 0.096,0.145 0.096,0.289z" fill="#1a1b26" fill-opacity="1"></path></g><g><title>&lt;Path&gt;</title><path d="M180.1125,42.8356c-0.224,0.801 -0.568,1.495 -1.031,2.088c-0.465,0.591 -1.045,1.057 -1.74,1.403c-0.695,0.343 -1.508,0.516 -2.435,0.516c-0.464,0 -0.975,-0.033 -1.536,-0.097c-0.559,-0.063 -1.143,-0.183 -1.751,-0.359v4.775c0,0.126 -0.02,0.207 -0.059,0.238c-0.04,0.033 -0.123,0.049 -0.252,0.049h-1.104c-0.112,0 -0.196,-0.016 -0.252,-0.049c-0.057,-0.031 -0.083,-0.112 -0.083,-0.238v-16.194c0,-0.194 0.087,-0.322 0.264,-0.385c0.767,-0.337 1.57,-0.564 2.409,-0.684c0.84,-0.121 1.645,-0.18 2.414,-0.18c0.942,0 1.761,0.16 2.457,0.48c0.695,0.32 1.268,0.769 1.715,1.343c0.449,0.576 0.78,1.265 0.997,2.063c0.215,0.801 0.323,1.68 0.323,2.64c0,0.927 -0.111,1.791 -0.336,2.591zM178.3385,37.8686c-0.193,-0.639 -0.464,-1.155 -0.815,-1.546c-0.353,-0.392 -0.769,-0.673 -1.249,-0.84c-0.48,-0.169 -1.015,-0.253 -1.608,-0.253c-0.432,0 -0.939,0.045 -1.523,0.133c-0.583,0.088 -1.092,0.219 -1.524,0.395v9.07c0.672,0.223 1.252,0.364 1.74,0.419c0.487,0.057 0.916,0.084 1.283,0.084c0.577,0 1.109,-0.091 1.596,-0.277c0.489,-0.183 0.908,-0.479 1.26,-0.886c0.352,-0.408 0.627,-0.936 0.827,-1.584c0.199,-0.648 0.3,-1.428 0.3,-2.339c0,-0.943 -0.096,-1.735 -0.287,-2.376z" fill="#1a1b26" fill-opacity="1"></path></g><g><title>&lt;Path&gt;</title><path d="M163.1128,46.5063c-0.056,0.047 -0.149,0.071 -0.278,0.071h-0.997c-0.146,0 -0.248,-0.024 -0.304,-0.071c-0.059,-0.048 -0.086,-0.151 -0.086,-0.312v-10.7v0h-3.838c-0.16,0 -0.265,-0.028 -0.313,-0.085c-0.047,-0.056 -0.072,-0.139 -0.072,-0.251v-0.792c0,-0.128 0.025,-0.223 0.072,-0.288c0.048,-0.064 0.153,-0.094 0.313,-0.094h9.643c0.161,0 0.259,0.03 0.301,0.094c0.038,0.065 0.059,0.16 0.059,0.288v0.792c0,0.112 -0.021,0.195 -0.059,0.251c-0.042,0.057 -0.14,0.085 -0.301,0.085h-4.053v0v10.7c0,0.161 -0.027,0.264 -0.087,0.312z" fill="#1a1b26" fill-opacity="1"></path></g><g><title>&lt;Path&gt;</title><path d="M146.3359,46.5063c-0.063,0.047 -0.158,0.071 -0.284,0.071h-0.97c-0.127,0 -0.227,-0.024 -0.297,-0.071c-0.073,-0.048 -0.107,-0.144 -0.107,-0.289v-11.874c0,-0.145 0.034,-0.24 0.107,-0.289c0.07,-0.047 0.17,-0.07 0.297,-0.07h0.97c0.126,0 0.221,0.023 0.284,0.07c0.062,0.049 0.094,0.144 0.094,0.289v4.725v0h6.693v0v-4.725c0,-0.145 0.032,-0.24 0.097,-0.289c0.066,-0.047 0.163,-0.07 0.292,-0.07h0.997c0.147,0 0.244,0.023 0.293,0.07c0.048,0.049 0.073,0.144 0.073,0.289v11.874c0,0.145 -0.025,0.241 -0.073,0.289c-0.049,0.047 -0.146,0.071 -0.293,0.071h-0.997c-0.129,0 -0.226,-0.024 -0.292,-0.071c-0.065,-0.048 -0.097,-0.144 -0.097,-0.289v-5.638v0h-6.693v0v5.638c0,0.145 -0.032,0.241 -0.094,0.289z" fill="#1a1b26" fill-opacity="1"></path></g><g><title>&lt;Path&gt;</title><path d="M256.7899,5.5052c0,-0.223 0.112,-0.336 0.335,-0.336h1.082c0.222,0 0.334,0.113 0.334,0.336v9.789l0.072,0.023c0.063,-0.096 0.171,-0.26 0.324,-0.491c0.152,-0.233 0.312,-0.48 0.48,-0.744c0.167,-0.265 0.327,-0.516 0.481,-0.756c0.15,-0.241 0.259,-0.399 0.322,-0.48c0.111,-0.175 0.288,-0.443 0.53,-0.804c0.239,-0.358 0.506,-0.768 0.803,-1.224c0.295,-0.455 0.61,-0.934 0.947,-1.439c0.337,-0.504 0.655,-0.983 0.96,-1.439c0.302,-0.456 0.579,-0.871 0.826,-1.248c0.248,-0.375 0.445,-0.66 0.588,-0.851c0.144,-0.24 0.277,-0.408 0.396,-0.504c0.12,-0.097 0.325,-0.144 0.612,-0.144h0.528c0.544,0 0.815,0.28 0.815,0.839v11.445c0,0.128 -0.023,0.212 -0.071,0.252c-0.047,0.04 -0.136,0.059 -0.263,0.059h-1.081c-0.128,0 -0.215,-0.019 -0.263,-0.059c-0.049,-0.04 -0.072,-0.124 -0.072,-0.252v-9.717h-0.121c-0.048,0.064 -0.135,0.2 -0.264,0.408c-0.128,0.207 -0.267,0.431 -0.419,0.671c-0.152,0.241 -0.297,0.464 -0.433,0.672c-0.136,0.208 -0.228,0.345 -0.275,0.408l-4.846,7.222c-0.16,0.255 -0.313,0.428 -0.456,0.516c-0.144,0.087 -0.328,0.131 -0.552,0.131h-0.456c-0.575,0 -0.863,-0.279 -0.863,-0.839zM259.8109,2.9612c-0.638,-0.463 -1.173,-1.039 -1.604,-1.727c-0.034,-0.048 -0.059,-0.108 -0.075,-0.18c-0.015,-0.071 0.026,-0.148 0.12,-0.228l0.409,-0.336c0.128,-0.08 0.217,-0.103 0.263,-0.072c0.048,0.033 0.111,0.089 0.193,0.168c0.431,0.528 0.904,0.931 1.415,1.212c0.512,0.28 0.998,0.42 1.464,0.42c0.368,0 0.779,-0.108 1.235,-0.324c0.457,-0.216 0.988,-0.667 1.596,-1.355c0.112,-0.112 0.191,-0.169 0.24,-0.169c0.048,0 0.11,0.025 0.192,0.073l0.407,0.312c0.127,0.111 0.176,0.207 0.144,0.288c-0.033,0.079 -0.072,0.153 -0.121,0.216c-0.606,0.862 -1.234,1.48 -1.882,1.848c-0.649,0.367 -1.276,0.55 -1.884,0.55c-0.767,0 -1.47,-0.232 -2.112,-0.696z" fill="#1a1b26" fill-opacity="1"></path></g><g><title>&lt;Path&gt;</title><path d="M245.3599,9.5352c0.971,0 1.756,0.152 2.355,0.456c0.597,0.305 1.06,0.668 1.389,1.092c0.324,0.424 0.546,0.872 0.657,1.344c0.113,0.472 0.168,0.875 0.168,1.21c0,0.561 -0.109,1.093 -0.326,1.596c-0.214,0.504 -0.512,0.944 -0.887,1.32c-0.376,0.376 -0.818,0.676 -1.331,0.899c-0.511,0.225 -1.072,0.336 -1.679,0.336h-5.085c-0.402,0 -0.674,-0.108 -0.817,-0.324c-0.146,-0.216 -0.216,-0.476 -0.216,-0.781v-11.13c0,-0.144 0.024,-0.24 0.073,-0.29c0.049,-0.045 0.137,-0.07 0.267,-0.07h1.021c0.147,0 0.249,0.025 0.304,0.07c0.059,0.05 0.086,0.146 0.086,0.29v3.982zM241.3389,10.9742v5.375h4.018c0.588,0 1.07,-0.097 1.445,-0.288c0.374,-0.193 0.67,-0.432 0.884,-0.719c0.217,-0.288 0.359,-0.588 0.431,-0.899c0.072,-0.313 0.108,-0.589 0.108,-0.829c0,-0.335 -0.056,-0.663 -0.167,-0.983c-0.112,-0.321 -0.287,-0.605 -0.527,-0.852c-0.24,-0.248 -0.537,-0.444 -0.895,-0.588c-0.359,-0.144 -0.787,-0.217 -1.279,-0.217zM251.4399,5.5532c0,-0.144 0.027,-0.24 0.085,-0.29c0.057,-0.045 0.15,-0.07 0.279,-0.07h0.997c0.131,0 0.227,0.025 0.291,0.07c0.067,0.05 0.099,0.146 0.099,0.29v11.899c0,0.145 -0.032,0.237 -0.099,0.277c-0.064,0.04 -0.16,0.059 -0.291,0.059h-0.997c-0.129,0 -0.222,-0.019 -0.279,-0.059c-0.058,-0.04 -0.085,-0.132 -0.085,-0.277z" fill="#1a1b26" fill-opacity="1"></path></g><g><title>&lt;Path&gt;</title><path d="M224.353,8.0483v0v9.429c0,0.128 -0.028,0.212 -0.084,0.252c-0.056,0.04 -0.148,0.059 -0.276,0.059h-1.008c-0.128,0 -0.215,-0.019 -0.264,-0.059c-0.048,-0.04 -0.07,-0.124 -0.07,-0.252v-11.492c0,-0.193 0.057,-0.373 0.179,-0.54c0.118,-0.169 0.34,-0.252 0.66,-0.252h0.648c0.238,0 0.427,0.041 0.564,0.12c0.133,0.08 0.266,0.256 0.394,0.528c0.129,0.271 0.32,0.671 0.576,1.198c0.257,0.528 0.524,1.08 0.805,1.657c0.279,0.576 0.546,1.127 0.804,1.655c0.254,0.528 0.445,0.927 0.575,1.199l1.415,3.047v0h0.073c0.095,-0.192 0.228,-0.471 0.395,-0.839c0.169,-0.368 0.348,-0.752 0.541,-1.152c0.192,-0.399 0.371,-0.784 0.539,-1.151c0.167,-0.368 0.301,-0.64 0.396,-0.817c0.111,-0.208 0.276,-0.535 0.492,-0.983c0.216,-0.448 0.444,-0.919 0.684,-1.416c0.238,-0.494 0.468,-0.966 0.682,-1.414c0.217,-0.449 0.382,-0.777 0.492,-0.984c0.129,-0.272 0.253,-0.448 0.371,-0.528c0.121,-0.079 0.317,-0.12 0.59,-0.12h0.624c0.32,0 0.54,0.083 0.658,0.252c0.122,0.167 0.182,0.347 0.182,0.54v11.492c0,0.128 -0.024,0.212 -0.073,0.252c-0.048,0.04 -0.136,0.059 -0.264,0.059h-1.032c-0.128,0 -0.216,-0.019 -0.263,-0.059c-0.049,-0.04 -0.072,-0.124 -0.072,-0.252v-9.575v0h-0.097v0l-1.08,2.306c-0.047,0.111 -0.151,0.335 -0.31,0.671c-0.159,0.336 -0.36,0.748 -0.601,1.236c-0.24,0.488 -0.509,1.039 -0.805,1.655c-0.296,0.616 -0.61,1.267 -0.945,1.954c-0.113,0.224 -0.225,0.386 -0.337,0.48c-0.112,0.096 -0.296,0.145 -0.551,0.145h-0.481c-0.254,0 -0.443,-0.044 -0.562,-0.132c-0.121,-0.087 -0.236,-0.252 -0.35,-0.493l-2.588,-5.301c-0.051,-0.08 -0.126,-0.231 -0.23,-0.456c-0.104,-0.225 -0.215,-0.468 -0.337,-0.732c-0.119,-0.264 -0.236,-0.508 -0.347,-0.731c-0.112,-0.225 -0.185,-0.377 -0.217,-0.456z" fill="#1a1b26" fill-opacity="1"></path></g><g><title>&lt;Path&gt;</title><path d="M208.5913,5.5049c0,-0.223 0.111,-0.335 0.335,-0.335h1.08c0.225,0 0.336,0.112 0.336,0.335v9.79v0l0.072,0.023c0.065,-0.097 0.171,-0.26 0.324,-0.492c0.151,-0.233 0.311,-0.479 0.481,-0.744c0.168,-0.265 0.328,-0.516 0.479,-0.756c0.151,-0.24 0.26,-0.399 0.323,-0.48c0.112,-0.175 0.288,-0.443 0.528,-0.803c0.239,-0.359 0.507,-0.769 0.805,-1.225c0.295,-0.455 0.612,-0.934 0.946,-1.438c0.336,-0.504 0.655,-0.984 0.961,-1.44c0.303,-0.456 0.579,-0.871 0.828,-1.247c0.247,-0.376 0.444,-0.661 0.587,-0.852c0.143,-0.24 0.278,-0.407 0.395,-0.503c0.121,-0.097 0.324,-0.145 0.613,-0.145h0.527c0.545,0 0.817,0.281 0.817,0.839v11.445c0,0.128 -0.025,0.212 -0.073,0.253c-0.048,0.039 -0.136,0.059 -0.263,0.059h-1.08c-0.128,0 -0.217,-0.02 -0.264,-0.059c-0.049,-0.041 -0.072,-0.125 -0.072,-0.253v-9.717v0h-0.12c-0.048,0.065 -0.135,0.2 -0.264,0.409c-0.128,0.207 -0.269,0.431 -0.42,0.67c-0.153,0.241 -0.296,0.465 -0.432,0.673c-0.137,0.207 -0.228,0.345 -0.277,0.408l-4.846,7.221c-0.16,0.256 -0.309,0.428 -0.454,0.516c-0.144,0.088 -0.329,0.132 -0.552,0.132h-0.457c-0.575,0 -0.863,-0.28 -0.863,-0.84z" fill="#1a1b26" fill-opacity="1"></path></g><g><title>&lt;Path&gt;</title><path d="M201.9683,16.5405c0.562,0 1.109,-0.072 1.644,-0.215c0.535,-0.144 0.987,-0.321 1.356,-0.528c0.128,-0.065 0.22,-0.08 0.277,-0.048c0.055,0.032 0.106,0.088 0.155,0.168l0.383,0.839c0.08,0.097 0.103,0.177 0.074,0.24c-0.033,0.064 -0.089,0.128 -0.169,0.193c-0.608,0.32 -1.257,0.543 -1.944,0.671c-0.688,0.128 -1.359,0.192 -2.014,0.192c-1.793,0 -3.148,-0.535 -4.067,-1.607c-0.921,-1.071 -1.381,-2.679 -1.381,-4.823c0,-1.04 0.133,-1.97 0.395,-2.794c0.266,-0.824 0.643,-1.524 1.129,-2.101c0.489,-0.575 1.084,-1.019 1.788,-1.331c0.704,-0.311 1.487,-0.468 2.351,-0.468c0.624,0 1.225,0.064 1.799,0.194c0.576,0.127 1.143,0.342 1.703,0.646c0.193,0.113 0.232,0.255 0.12,0.432l-0.431,0.817c-0.032,0.08 -0.076,0.135 -0.132,0.167c-0.057,0.033 -0.148,0.016 -0.277,-0.048c-0.399,-0.176 -0.827,-0.327 -1.284,-0.455c-0.454,-0.128 -0.954,-0.193 -1.498,-0.193c-0.705,0 -1.299,0.14 -1.787,0.42c-0.488,0.28 -0.893,0.659 -1.212,1.14c-0.319,0.478 -0.553,1.027 -0.695,1.642c-0.144,0.617 -0.216,1.261 -0.216,1.932c0,0.688 0.063,1.332 0.191,1.931c0.129,0.6 0.345,1.121 0.648,1.56c0.303,0.44 0.708,0.788 1.211,1.043c0.505,0.257 1.132,0.384 1.883,0.384z" fill="#1a1b26" fill-opacity="1"></path></g><g><title>&lt;Path&gt;</title><path d="M182.7046,5.5049c0,-0.223 0.111,-0.335 0.336,-0.335h1.08c0.223,0 0.335,0.112 0.335,0.335v9.79v0l0.073,0.023c0.063,-0.097 0.17,-0.26 0.322,-0.492c0.154,-0.233 0.313,-0.479 0.481,-0.744c0.167,-0.265 0.328,-0.516 0.48,-0.756c0.15,-0.24 0.26,-0.399 0.324,-0.48c0.111,-0.175 0.288,-0.443 0.528,-0.803c0.239,-0.359 0.507,-0.769 0.804,-1.225c0.295,-0.455 0.611,-0.934 0.947,-1.438c0.336,-0.504 0.655,-0.984 0.96,-1.44c0.303,-0.456 0.58,-0.871 0.827,-1.247c0.248,-0.376 0.444,-0.661 0.587,-0.852c0.145,-0.24 0.277,-0.407 0.396,-0.503c0.122,-0.097 0.325,-0.145 0.612,-0.145h0.528c0.544,0 0.816,0.281 0.816,0.839v11.445c0,0.128 -0.025,0.212 -0.072,0.253c-0.047,0.039 -0.136,0.059 -0.263,0.059h-1.08c-0.128,0 -0.216,-0.02 -0.265,-0.059c-0.048,-0.041 -0.071,-0.125 -0.071,-0.253v-9.717v0h-0.121c-0.048,0.065 -0.135,0.2 -0.263,0.409c-0.129,0.207 -0.267,0.431 -0.42,0.67c-0.152,0.241 -0.296,0.465 -0.433,0.673c-0.135,0.207 -0.227,0.345 -0.274,0.408l-4.847,7.221c-0.16,0.256 -0.311,0.428 -0.456,0.516c-0.144,0.088 -0.328,0.132 -0.552,0.132h-0.456c-0.576,0 -0.863,-0.28 -0.863,-0.84z" fill="#1a1b26" fill-opacity="1"></path></g><g><title>&lt;Path&gt;</title><path d="M177.3306,11.0225c0.433,0.129 0.791,0.3 1.081,0.517c0.285,0.214 0.519,0.462 0.694,0.743c0.176,0.28 0.3,0.58 0.373,0.899c0.07,0.32 0.106,0.632 0.106,0.936c0,0.544 -0.104,1.04 -0.311,1.488c-0.208,0.448 -0.497,0.836 -0.862,1.164c-0.37,0.327 -0.805,0.58 -1.309,0.754c-0.505,0.178 -1.06,0.265 -1.668,0.265h-5.325c-0.641,0 -0.96,-0.296 -0.96,-0.889v-10.818c0,-0.592 0.319,-0.888 0.96,-0.888h5.133c1.104,0 2.012,0.252 2.724,0.755c0.711,0.505 1.068,1.292 1.068,2.362c0,0.529 -0.142,1.037 -0.42,1.525c-0.282,0.487 -0.701,0.844 -1.259,1.067zM170.9006,10.3265h4.222c0.192,0 0.413,-0.027 0.66,-0.082c0.247,-0.057 0.481,-0.156 0.696,-0.299c0.216,-0.142 0.397,-0.333 0.539,-0.571c0.144,-0.239 0.216,-0.541 0.216,-0.907c0,-0.492 -0.172,-0.909 -0.514,-1.25c-0.345,-0.341 -0.821,-0.512 -1.428,-0.512h-4.391zM177.1026,12.3775c-0.456,-0.406 -1.14,-0.61 -2.051,-0.61h-4.151v4.63h4.151c0.576,0 1.043,-0.081 1.403,-0.241c0.359,-0.159 0.636,-0.359 0.828,-0.6c0.191,-0.239 0.324,-0.499 0.396,-0.78c0.072,-0.279 0.107,-0.538 0.107,-0.778c0,-0.672 -0.227,-1.212 -0.683,-1.621z" fill="#1a1b26" fill-opacity="1"></path></g><g><title>&lt;Path&gt;</title><path d="M165.5495,16.6837c0,0.289 -0.111,0.481 -0.335,0.577c-0.72,0.304 -1.487,0.513 -2.302,0.624c-0.816,0.111 -1.6,0.168 -2.352,0.168c-1.024,0 -1.864,-0.112 -2.519,-0.337c-0.656,-0.224 -1.177,-0.517 -1.561,-0.879c-0.383,-0.36 -0.651,-0.777 -0.803,-1.25c-0.152,-0.473 -0.227,-0.967 -0.227,-1.48c0,-0.594 0.104,-1.151 0.311,-1.673c0.207,-0.521 0.523,-0.974 0.948,-1.359c0.425,-0.385 0.956,-0.687 1.596,-0.902c0.64,-0.218 1.399,-0.325 2.279,-0.325h3.191v-0.64c0,-0.393 -0.042,-0.759 -0.121,-1.099c-0.08,-0.338 -0.23,-0.627 -0.454,-0.863c-0.226,-0.236 -0.538,-0.422 -0.936,-0.555c-0.401,-0.135 -0.92,-0.202 -1.561,-0.202c-0.526,0 -1.106,0.053 -1.739,0.155c-0.632,0.105 -1.172,0.228 -1.62,0.373c-0.112,0.032 -0.2,0.044 -0.264,0.035c-0.063,-0.007 -0.112,-0.068 -0.143,-0.18l-0.241,-0.87c-0.049,-0.178 0.017,-0.301 0.193,-0.366c0.288,-0.113 0.6,-0.215 0.936,-0.304c0.335,-0.091 0.683,-0.167 1.044,-0.232c0.36,-0.065 0.722,-0.11 1.092,-0.133c0.366,-0.025 0.71,-0.039 1.031,-0.039c1.551,0 2.698,0.345 3.442,1.033c0.743,0.689 1.115,1.695 1.115,3.023zM163.7505,11.4067h-3.095c-0.287,0 -0.631,0.024 -1.032,0.072c-0.399,0.05 -0.779,0.166 -1.138,0.35c-0.36,0.184 -0.664,0.459 -0.912,0.82c-0.248,0.361 -0.372,0.856 -0.372,1.482c0,0.481 0.091,0.883 0.275,1.204c0.184,0.322 0.433,0.579 0.745,0.772c0.311,0.194 0.667,0.325 1.068,0.398c0.398,0.072 0.815,0.109 1.247,0.109c0.143,0 0.339,-0.008 0.587,-0.025c0.247,-0.016 0.523,-0.04 0.827,-0.072c0.305,-0.032 0.613,-0.085 0.925,-0.156c0.312,-0.073 0.604,-0.157 0.875,-0.254z" fill="#1a1b26" fill-opacity="1"></path></g><g><title>&lt;Path&gt;</title><path d="M150.3169,11.1431c0.879,0.176 1.531,0.541 1.955,1.091c0.424,0.552 0.635,1.188 0.635,1.908c0,0.527 -0.105,1.028 -0.311,1.499c-0.208,0.472 -0.529,0.884 -0.961,1.236c-0.431,0.352 -0.971,0.632 -1.618,0.84c-0.648,0.206 -1.403,0.311 -2.266,0.311c-0.369,0 -0.758,-0.016 -1.165,-0.047c-0.408,-0.034 -0.815,-0.087 -1.223,-0.16c-0.408,-0.073 -0.796,-0.165 -1.164,-0.28c-0.368,-0.113 -0.695,-0.252 -0.984,-0.416c-0.111,-0.065 -0.135,-0.186 -0.073,-0.365l0.384,-0.82c0.081,-0.126 0.152,-0.191 0.217,-0.191c0.048,0 0.12,0.024 0.216,0.073c0.416,0.175 0.948,0.348 1.595,0.515c0.648,0.168 1.3,0.251 1.955,0.251c1.311,0 2.261,-0.242 2.843,-0.728c0.584,-0.484 0.876,-1.085 0.876,-1.801c0,-0.653 -0.296,-1.182 -0.887,-1.587c-0.592,-0.407 -1.559,-0.609 -2.904,-0.609c-0.224,0 -0.391,-0.035 -0.503,-0.106c-0.113,-0.072 -0.169,-0.209 -0.169,-0.414v-0.378c0,-0.361 0.216,-0.542 0.648,-0.542c1.201,0 2.048,-0.189 2.544,-0.567c0.496,-0.377 0.744,-0.873 0.744,-1.484c0,-0.644 -0.265,-1.123 -0.792,-1.437c-0.528,-0.314 -1.249,-0.47 -2.158,-0.47c-0.561,0 -1.135,0.071 -1.717,0.216c-0.584,0.145 -1.085,0.303 -1.499,0.479c-0.097,0.032 -0.16,0.048 -0.191,0.048c-0.113,0 -0.194,-0.056 -0.241,-0.169l-0.312,-0.766c-0.048,-0.096 -0.071,-0.176 -0.071,-0.241c0,-0.063 0.055,-0.126 0.167,-0.191c1.183,-0.592 2.534,-0.889 4.055,-0.889c1.375,0 2.471,0.277 3.286,0.829c0.815,0.551 1.224,1.356 1.224,2.411c0,0.609 -0.18,1.171 -0.54,1.692c-0.359,0.519 -0.9,0.915 -1.62,1.187z" fill="#1a1b26" fill-opacity="1"></path></g><g><title>&lt;Path&gt;</title><path d="M130.644,63.0835c0,-0.223 0.111,-0.335 0.336,-0.335h1.08c0.223,0 0.334,0.112 0.334,0.335v9.79v0l0.073,0.023c0.064,-0.096 0.172,-0.26 0.323,-0.492c0.152,-0.231 0.313,-0.48 0.481,-0.743c0.167,-0.265 0.327,-0.516 0.48,-0.757c0.15,-0.239 0.259,-0.398 0.322,-0.478c0.113,-0.177 0.29,-0.445 0.53,-0.805c0.239,-0.359 0.508,-0.767 0.803,-1.223c0.296,-0.457 0.612,-0.935 0.947,-1.44c0.337,-0.504 0.655,-0.982 0.96,-1.439c0.304,-0.457 0.58,-0.871 0.828,-1.248c0.247,-0.375 0.444,-0.659 0.587,-0.852c0.144,-0.239 0.276,-0.406 0.395,-0.503c0.122,-0.097 0.325,-0.144 0.613,-0.144h0.527c0.545,0 0.817,0.28 0.817,0.84v11.444c0,0.128 -0.025,0.212 -0.072,0.252c-0.048,0.04 -0.136,0.059 -0.264,0.059h-1.079c-0.128,0 -0.217,-0.019 -0.265,-0.059c-0.048,-0.04 -0.071,-0.124 -0.071,-0.252v-9.716v0h-0.121c-0.047,0.063 -0.136,0.199 -0.264,0.408c-0.129,0.207 -0.267,0.431 -0.42,0.67c-0.151,0.24 -0.295,0.464 -0.432,0.672c-0.135,0.209 -0.228,0.345 -0.275,0.408l-4.846,7.22c-0.16,0.257 -0.312,0.429 -0.456,0.517c-0.145,0.088 -0.328,0.132 -0.552,0.132h-0.457c-0.575,0 -0.862,-0.279 -0.862,-0.839z" fill="#1a1b26" fill-opacity="1"></path></g><g><title>&lt;Path&gt;</title><path d="M116.8247,59.8931c0.063,-0.896 0.488,-1.343 1.272,-1.343h7.508c0.847,0 1.272,0.447 1.272,1.343v15.163c0,0.128 -0.025,0.212 -0.073,0.252c-0.046,0.041 -0.135,0.06 -0.263,0.06h-1.198c-0.129,0 -0.217,-0.019 -0.265,-0.06c-0.048,-0.04 -0.072,-0.124 -0.072,-0.252v-14.851v0h-6.43v0l-0.215,2.928c-0.145,1.854 -0.281,3.486 -0.408,4.893c-0.129,1.407 -0.349,2.623 -0.661,3.647c-0.311,1.025 -0.767,1.864 -1.366,2.519c-0.6,0.656 -1.438,1.151 -2.507,1.487c-0.08,0.031 -0.166,0.037 -0.253,0.013c-0.087,-0.024 -0.155,-0.117 -0.204,-0.276l-0.216,-0.864c-0.048,-0.176 -0.043,-0.288 0.013,-0.336c0.055,-0.049 0.123,-0.087 0.203,-0.12c0.8,-0.336 1.415,-0.768 1.846,-1.296c0.433,-0.527 0.76,-1.223 0.985,-2.086c0.224,-0.865 0.385,-1.932 0.479,-3.204c0.097,-1.271 0.208,-2.818 0.337,-4.642z" fill="#1a1b26" fill-opacity="1"></path></g><g><title>&lt;Path&gt;</title><path d="M138.6814,34.1151c0.656,0.262 1.195,0.635 1.619,1.115c0.424,0.481 0.741,1.048 0.946,1.703c0.209,0.656 0.314,1.377 0.314,2.16c0,0.671 -0.156,1.114 -0.469,1.331c-0.312,0.216 -0.691,0.323 -1.139,0.323h-7.342c0,0.829 0.104,1.532 0.313,2.113c0.209,0.582 0.494,1.05 0.854,1.408c0.361,0.359 0.788,0.617 1.276,0.776c0.491,0.16 1.015,0.238 1.577,0.238c0.53,0 1.047,-0.063 1.553,-0.192c0.507,-0.127 0.934,-0.287 1.286,-0.479c0.194,-0.097 0.332,-0.064 0.411,0.096l0.432,0.843c0.095,0.196 0.056,0.334 -0.121,0.415c-0.56,0.341 -1.159,0.573 -1.798,0.695c-0.641,0.122 -1.263,0.182 -1.871,0.182c-1.76,0 -3.144,-0.516 -4.152,-1.547c-1.008,-1.032 -1.511,-2.683 -1.511,-4.955c0,-1.071 0.135,-2.019 0.408,-2.843c0.272,-0.824 0.652,-1.514 1.139,-2.076c0.488,-0.559 1.063,-0.983 1.728,-1.271c0.664,-0.287 1.395,-0.431 2.195,-0.431c0.911,0 1.695,0.132 2.352,0.396zM139.8804,39.3091c0,-0.543 -0.055,-1.064 -0.17,-1.561c-0.111,-0.495 -0.301,-0.93 -0.564,-1.306c-0.266,-0.376 -0.629,-0.676 -1.096,-0.901c-0.465,-0.223 -1.043,-0.336 -1.732,-0.336c-0.563,0 -1.064,0.108 -1.504,0.325c-0.442,0.216 -0.816,0.508 -1.12,0.876c-0.305,0.367 -0.543,0.799 -0.71,1.296c-0.171,0.496 -0.27,1.031 -0.3,1.607z" fill="#1a1b26" fill-opacity="1"></path></g><g><title>&lt;Path&gt;</title><path d="M127.8843,44.9233c0.386,0.015 0.608,0.119 0.671,0.311c0.064,0.192 0.088,0.377 0.073,0.551l-0.264,4.391c0,0.224 -0.087,0.336 -0.264,0.336h-0.959c-0.16,0 -0.248,-0.112 -0.265,-0.336l-0.143,-3.599v0h-11.085c-0.399,0 -0.711,-0.108 -0.934,-0.323c-0.226,-0.216 -0.337,-0.548 -0.337,-0.997v-15.185c0,-0.129 0.024,-0.207 0.071,-0.24c0.05,-0.032 0.137,-0.048 0.266,-0.048h1.175c0.128,0 0.216,0.016 0.264,0.048c0.048,0.033 0.071,0.111 0.071,0.24v14.874v0h8.973v0v-14.874c0,-0.129 0.028,-0.212 0.084,-0.253c0.056,-0.039 0.141,-0.059 0.252,-0.059h1.176c0.128,0 0.216,0.02 0.264,0.059c0.048,0.041 0.072,0.124 0.072,0.253v14.802v0z" fill="#1a1b26" fill-opacity="1"></path></g><g><title>&lt;Path&gt;</title><path d="M138.2721,5.325c0.657,0.263 1.196,0.635 1.621,1.115c0.424,0.481 0.74,1.048 0.946,1.704c0.209,0.657 0.313,1.375 0.313,2.16c0,0.671 -0.155,1.114 -0.468,1.33c-0.312,0.217 -0.692,0.325 -1.14,0.325h-7.342c0,0.827 0.105,1.531 0.313,2.112c0.209,0.582 0.495,1.049 0.854,1.407c0.363,0.359 0.786,0.618 1.277,0.777c0.491,0.159 1.014,0.238 1.577,0.238c0.53,0 1.047,-0.063 1.553,-0.192c0.506,-0.127 0.933,-0.288 1.287,-0.479c0.192,-0.098 0.33,-0.065 0.41,0.095l0.432,0.844c0.094,0.195 0.056,0.333 -0.121,0.415c-0.56,0.341 -1.16,0.572 -1.799,0.694c-0.64,0.121 -1.264,0.183 -1.87,0.183c-1.76,0 -3.144,-0.517 -4.152,-1.548c-1.008,-1.031 -1.511,-2.683 -1.511,-4.954c0,-1.072 0.135,-2.02 0.407,-2.844c0.272,-0.823 0.652,-1.515 1.14,-2.076c0.487,-0.559 1.063,-0.982 1.727,-1.27c0.664,-0.288 1.396,-0.433 2.195,-0.433c0.911,0 1.696,0.133 2.351,0.397zM139.4731,10.52c0,-0.544 -0.056,-1.064 -0.17,-1.561c-0.112,-0.494 -0.302,-0.93 -0.565,-1.306c-0.265,-0.376 -0.629,-0.676 -1.095,-0.901c-0.465,-0.223 -1.043,-0.336 -1.733,-0.336c-0.562,0 -1.063,0.108 -1.503,0.324c-0.443,0.217 -0.816,0.509 -1.12,0.876c-0.305,0.368 -0.543,0.8 -0.71,1.296c-0.17,0.496 -0.27,1.031 -0.301,1.608z" fill="#1a1b26" fill-opacity="1"></path></g><g><title>&lt;Path&gt;</title><path d="M116.2017,17.7295c-0.049,0.04 -0.137,0.059 -0.265,0.059h-1.222c-0.114,0 -0.197,-0.019 -0.253,-0.059c-0.056,-0.041 -0.085,-0.125 -0.085,-0.252v-16.17c0,-0.129 0.029,-0.212 0.085,-0.253c0.056,-0.04 0.139,-0.059 0.253,-0.059h1.222c0.128,0 0.216,0.019 0.265,0.059c0.047,0.041 0.07,0.124 0.07,0.253v6.789v0h8.974v0v-6.789c0,-0.129 0.024,-0.212 0.071,-0.253c0.049,-0.04 0.136,-0.059 0.264,-0.059h1.177c0.127,0 0.215,0.019 0.264,0.059c0.047,0.041 0.071,0.124 0.071,0.253v16.17c0,0.127 -0.024,0.211 -0.071,0.252c-0.049,0.04 -0.137,0.059 -0.264,0.059h-1.177c-0.128,0 -0.215,-0.019 -0.264,-0.059c-0.047,-0.041 -0.071,-0.125 -0.071,-0.252v-7.75v0h-8.974v0v7.75c0,0.127 -0.023,0.211 -0.07,0.252z" fill="#1a1b26" fill-opacity="1"></path></g><g><title>&lt;Path&gt;</title><path d="M58.3716,11.6382v0h-55.801v0c0,0 -1.539,-0.019 -1.865,0.807c-0.353,0.894 0.102,1.612 1.613,2.519c1.323,0.794 33.061,14.545 43.529,17.474c1.275,0.402 2.633,0.622 4.043,0.622c7.405,0 13.41,-6.003 13.41,-13.408c0,-2.197 -0.595,-4.24 -1.478,-6.097c-0.716,-1.502 -1.914,-1.917 -3.451,-1.917z" fill="#59ffff" fill-opacity="1"></path></g><g><title>&lt;Path&gt;</title><path d="M96.4487,1.0317v0h-15.677v0c0,0 -1.525,-0.038 -2.456,0.894c0,0 -8.173,7.819 -9.779,9.427c-1.606,1.606 -1.192,3.402 -0.975,4.272c0.348,1.388 0.532,2.841 0.532,4.337c0,9.854 -7.989,17.843 -17.844,17.843c-1.951,0 -3.823,-0.322 -5.577,-0.906c-0.675,-0.223 -2.006,-0.806 -3.519,0.706c-1.514,1.512 -37.845,36.248 -37.845,36.248v0c0,0 -1.399,1.557 0.819,1.557h3.68c1.108,0 2.167,-0.503 3.528,-1.361c1.361,-0.858 17.843,-13.838 24.196,-17.241c6.351,-3.402 13.243,-4.283 24.66,-5.676c11.543,-1.409 21.941,-6.646 23.791,-19.991c1.452,-10.475 1.227,-13.743 5.686,-18.792c3.05,-3.455 7.267,-8.184 8.065,-9.124c0.879,-1.034 0.63,-2.193 -1.285,-2.193z" fill="#041274" fill-opacity="1"></path></g></g></svg>