<svg xmlns="http://www.w3.org/2000/svg" width="99" height="75" viewBox="0 0 99 75"><g><g><path fill="#041274" d="M96.449.032H80.772s-1.525-.038-2.456.894c0 0-8.173 7.819-9.78 9.427-1.605 1.606-1.191 3.402-.974 4.272.348 1.388.532 2.84.532 4.337 0 9.854-7.99 17.843-17.844 17.843-1.951 0-3.823-.322-5.577-.906-.675-.223-2.006-.806-3.52.706C39.64 38.117 3.31 72.853 3.31 72.853s-1.4 1.557.819 1.557h3.68c1.108 0 2.167-.503 3.528-1.361 1.36-.858 17.843-13.838 24.196-17.241 6.35-3.402 13.243-4.283 24.66-5.676 11.543-1.41 21.94-6.646 23.79-19.991 1.453-10.475 1.228-13.743 5.687-18.792 3.05-3.455 7.267-8.184 8.065-9.124.879-1.034.63-2.193-1.285-2.193z"/></g><g><path fill="#59ffff" d="M58.372 10.638H2.57s-1.54-.019-1.865.807c-.353.894.102 1.612 1.613 2.52 1.323.793 33.06 14.544 43.529 17.473 1.275.402 2.633.622 4.043.622 7.405 0 13.41-6.003 13.41-13.408 0-2.197-.595-4.24-1.478-6.097-.716-1.502-1.914-1.917-3.451-1.917z"/></g></g></svg>